<svg xmlns="http://www.w3.org/2000/svg" version="1.1" xmlns:xlink="http://www.w3.org/1999/xlink" xmlns:svgjs="http://svgjs.dev/svgjs" viewBox="0 0 800 800"><defs><linearGradient x1="50%" y1="0%" x2="50%" y2="100%" id="ccchaos-grad"><stop stop-color="hsl(206, 75%, 49%)" stop-opacity="1" offset="0%"></stop><stop stop-color="hsl(331, 90%, 56%)" stop-opacity="1" offset="100%"></stop></linearGradient></defs><g stroke-width="2" stroke="hsl(265, 8%, 75%)" fill="none" stroke-linecap="round"><path d="M384.88 60.19Q396.76 64 409.16 68.05 421.99 72.38 435.14 77.03 448.48 82.01 461.87 87.34 475.16 93.03 488.2 99.07 500.85 105.44 512.96 112.13 524.41 119.1 535.09 126.31 544.93 133.71 553.85 141.26 561.84 148.88 568.89 156.52 575.04 164.11 580.34 171.59 588.59 185.81 595.41 199.16 601.61 210.62 608.57 220.78 618.61 228.74 631.43 235.48 639.75 238.23 649.25 240.72 654.76 251.16 664.17 261.6 676.32 272.04 689.69 282.48 702.59 292.92 713.41 303.36 720.8 313.8 723.82 324.24 722.11 334.68 715.87 345.12 705.88 355.56 693.41 366 680 376.44 667.35 386.88 657.03 397.32 650.35 407.77 648.13 418.21 650.65 428.65 657.6 439.09 668.12 449.53 680.87 459.97 694.26 470.41 706.62 480.85 716.4 491.29 722.36 501.73 723.77 512.17 720.44 522.61 712.8 533.06 701.79 543.5 688.81 553.94 675.48 564.38 663.46 574.82 649.84 584.66 637.2 594.18 625.62 603.28 615.17 611.84 605.87 619.78 597.69 627.01 584.9 638.71 574.69 647.93 555.47 655.82 543.91 656.35 531.39 655.87 516.32 656.18 507.25 657.12 497.34 658.7 486.64 661.02 475.24 664.15 463.25 668.16 450.79 673.08 437.99 678.94 424.98 685.72 411.91 693.4 398.92 701.91 388.46 701.09 376.92 701.56 362.77 702.74 346.79 703.48 337.73 703.23 328.08 702.44 317.92 701 307.29 698.83 296.29 695.84 285.01 692.01 273.53 687.29 261.96 681.7 250.4 675.25 238.93 667.99 227.63 659.98 216.59 651.29 205.84 642.03 195.45 632.3 185.43 622.24 175.81 611.96 166.56 601.6 157.69 591.29 149.15 581.16 140.91 571.34 132.9 561.95 125.08 553.07 117.39 544.81 109.74 537.23 112.01 527.26 114.51 517.28 116.96 507.31 119.03 497.33 120.47 487.36 121.09 477.38 120.83 467.41 119.71 457.43 117.87 447.46 115.54 437.49 113.02 427.51 110.62 417.54 108.64 407.56 107.33 397.59 106.86 387.61 107.28 377.64 108.53 367.66 110.48 357.69 112.86 347.72 115.38 337.74 117.73 327.77 119.61 317.79 120.78 307.82 121.1 297.85 120.53 287.87 119.14 277.9 117.11 267.92 114.68 257.95 112.17 247.97 109.88 238 111.72 221.31 123.82 211.5 132.58 208.69 141.65 206.1 151.06 203.66 160.8 201.29 170.89 198.94 181.29 196.52 191.99 193.96 202.93 191.2 214.05 188.19 225.28 184.88 236.55 181.21 247.77 177.17 258.85 172.74 269.7 167.9 280.23 162.65 290.37 157.02 300.06 151.01 309.23 144.66 317.85 138.02 325.9 131.12 333.39 124.01 340.32 116.76 346.76 109.42 352.75 102.05 358.37 94.71 363.73 87.45 379.52 66.84 384.88 60.19" stroke-dasharray="3 11" transform="rotate(0, 400, 400)" opacity="1.00"></path><path d="M393.38 72.53Q405.67 76.14 418.21 79.99 430.87 84.11 443.53 88.52 456.08 93.25 468.37 98.32 480.3 103.72 491.73 109.46 502.56 115.53 512.71 121.9 522.11 128.55 530.69 135.45 538.44 142.56 545.36 149.82 551.46 157.19 556.81 164.61 565.32 179.29 572.45 193.59 578.74 206.71 585.49 218.83 594.62 229 606.04 237.9 613.36 241.61 621.72 244.94 631.15 247.91 641.65 250.56 649.19 260.66 659.71 270.77 672 280.88 684.65 290.98 696.17 301.09 705.24 311.19 710.8 321.3 712.21 331.41 709.3 341.51 702.42 351.62 692.36 361.72 680.28 371.83 667.59 381.93 655.76 392.04 646.16 402.15 639.9 412.25 637.71 422.36 639.85 432.46 646.06 442.57 655.62 452.68 667.44 462.78 680.12 472.89 692.22 483 702.31 493.1 709.24 503.21 712.2 513.31 710.84 523.42 705.33 533.53 696.3 543.63 684.8 553.74 672.16 563.85 659.85 573.95 645.93 582.97 632.75 591.59 620.4 599.7 609 607.23 598.59 614.12 589.2 620.3 573.9 630.05 561.36 637.54 540.59 643.28 530.41 643.51 520.83 643.36 509.33 644.1 494.09 647.39 476.53 652.76 466.47 656.81 455.78 661.7 444.54 667.44 432.84 674.02 420.81 681.42 408.55 689.57 396.96 688.63 383.78 688.89 367.63 689.9 349.71 690.59 339.82 690.43 329.48 689.82 318.77 688.64 307.77 686.83 296.57 684.3 285.27 681.02 273.95 676.94 262.7 672.07 251.6 666.39 240.73 659.95 230.14 652.78 219.87 644.94 209.98 636.51 200.46 627.58 191.33 618.24 182.59 608.6 174.2 598.78 166.14 588.89 158.37 579.05 150.82 569.37 143.46 559.96 136.22 550.93 129.03 542.36 121.85 534.33 124.4 524.7 127.01 515.07 129.4 505.44 131.26 495.81 132.41 486.18 132.69 476.55 132.08 466.92 130.64 457.29 128.55 447.66 126.05 438.03 123.42 428.4 120.97 418.77 118.99 409.15 117.71 399.52 117.27 389.89 117.72 380.26 119.02 370.63 121 361 123.45 351.37 126.08 341.74 128.58 332.11 130.66 322.48 132.09 312.85 132.69 303.22 132.4 293.59 131.25 283.96 129.37 274.33 126.98 264.7 124.37 255.07 121.82 245.44 122.69 229.56 133.59 220.71 141.67 218.3 150.03 216.04 158.68 213.84 167.67 211.65 177.01 209.39 186.68 207.02 196.69 204.45 207 201.66 217.57 198.58 228.35 195.18 239.29 191.42 250.3 187.3 261.32 182.79 272.25 177.9 283.02 172.62 293.54 166.99 303.74 161.01 313.53 154.73 322.88 148.18 331.71 141.41 340 134.46 347.74 127.39 354.92 120.24 361.56 113.08 367.7 105.96 373.39 98.93 388.52 78.97 393.38 72.53" stroke-dasharray="8 9" transform="rotate(4.04, 400, 400)" opacity="0.96"></path><path d="M403.12 84.87Q415.11 88.29 427.04 91.94 438.83 95.84 450.35 100.02 461.5 104.5 472.2 109.3 482.34 114.42 491.86 119.86 500.71 125.62 508.83 131.67 516.22 138 522.86 144.58 533.74 158.39 542.81 172.59 549.8 186.91 556.24 200.98 563.17 214.12 571.24 226.43 582.43 237 596.09 246.4 604.52 250.4 613.92 254 624.27 257.24 635.53 260.12 644.53 269.88 655.6 279.64 667.57 289.4 679.16 299.16 689.13 308.92 696.41 318.68 700.22 328.44 700.16 338.2 696.23 347.96 688.85 357.72 678.82 367.48 667.2 377.24 655.23 387 644.21 396.76 635.3 406.51 629.46 416.27 627.31 426.03 629.09 435.79 634.6 445.55 643.25 455.31 654.12 465.07 666.05 474.83 677.76 484.59 688 494.35 695.67 504.11 699.95 513.86 700.39 523.62 696.93 533.38 689.96 543.14 680.2 552.9 668.72 562.66 656.73 572.42 642.85 580.52 629.46 588.15 616.68 595.24 604.62 601.74 593.36 607.59 582.97 612.77 573.48 617.26 564.91 621.06 550.82 626.35 539.1 629.84 518.58 630.82 508.34 630.82 498.96 632.39 487.91 635.48 473.57 641.8 457.18 650.33 447.83 655.94 437.9 662.32 427.45 669.43 416.57 677.23 402.98 676.18 387.64 676.24 378.96 676.66 369.75 677.12 360.05 677.5 349.94 677.71 339.47 677.62 328.73 677.15 317.8 676.21 306.76 674.71 295.71 672.6 284.72 669.81 273.87 666.32 263.23 662.11 252.85 657.17 242.79 651.5 233.07 645.15 223.73 638.15 214.78 630.56 206.21 622.44 198.01 613.87 190.15 604.95 182.6 595.75 175.32 586.39 168.26 576.97 161.37 567.58 154.58 558.33 147.85 549.31 141.12 540.61 134.34 532.32 137.05 523.03 139.66 513.73 141.86 504.44 143.44 495.15 144.23 485.86 144.13 476.56 143.16 467.27 141.42 457.98 139.1 448.69 136.45 439.39 133.75 430.1 131.29 420.81 129.33 411.51 128.08 402.22 127.68 392.93 128.16 383.64 129.49 374.34 131.5 365.05 134 355.76 136.71 346.46 139.34 337.17 141.61 327.88 143.29 318.59 144.18 309.29 144.19 300 143.33 290.71 141.68 281.41 139.42 272.12 136.8 262.83 134.08 253.53 134.1 238.4 143.86 230.35 159.04 226.22 175.01 222.08 183.54 219.86 192.41 217.47 201.62 214.86 211.17 211.99 221.04 208.82 231.18 205.32 241.57 201.47 252.15 197.25 262.86 192.68 273.62 187.74 284.36 182.45 295.02 176.82 305.5 170.89 315.73 164.69 325.63 158.25 335.15 151.62 344.23 144.84 352.81 137.95 360.87 131.02 368.39 124.08 375.37 117.19 381.81 110.38 398.08 91.09 403.12 84.87" stroke-dasharray="2 10" transform="rotate(8.08, 400, 400)" opacity="0.92"></path><path d="M412.28 97.21Q423.28 100.45 433.99 103.9 444.34 107.59 454.24 111.54 463.63 115.78 472.45 120.31 480.66 125.14 488.23 130.29 501.11 141.59 512.12 153.7 520.53 166.89 527.83 180.5 534.32 194.39 541.03 208.15 549.27 221.23 559.11 233.64 565.19 239.35 572.04 244.73 579.71 249.75 588.24 254.41 597.62 258.69 607.84 262.59 618.86 266.12 630.62 269.29 640.49 278.68 651.59 288.08 662.83 297.48 673.1 306.88 681.39 316.28 686.9 325.68 689.07 335.08 687.7 344.48 682.91 353.87 675.19 363.27 665.28 372.67 654.17 382.07 642.94 391.47 632.7 400.87 624.45 410.26 619.01 419.66 616.91 429.06 618.36 438.46 623.21 447.86 630.98 457.26 640.92 466.66 652.05 476.05 663.27 485.45 673.48 494.85 681.68 504.25 687.05 513.65 689.08 523.04 687.57 532.44 682.65 541.84 674.83 551.24 664.85 560.64 653.71 570.04 640.2 577.16 626.94 583.77 614.06 589.84 601.67 595.32 589.88 600.19 578.77 604.43 568.41 608.05 558.83 611.05 542.48 615.08 528.49 617.61 504.76 618.23 494.5 618.55 479.99 623.65 467.53 630.13 454.25 639.33 439.16 650.61 430.58 657.43 421.46 664.88 405.56 663.73 388.08 663.62 378.51 663.93 368.56 664.3 358.29 664.63 347.78 664.83 337.11 664.79 326.35 664.44 315.58 663.69 304.89 662.47 294.33 660.72 283.97 658.38 273.87 655.43 264.08 651.82 254.62 647.56 245.53 642.64 236.82 637.07 228.48 630.88 220.52 624.12 212.9 616.82 205.61 609.06 198.61 600.89 191.85 592.4 185.28 583.66 178.87 574.77 172.54 565.81 166.26 556.87 159.96 548.03 153.61 539.38 147.16 531 149.91 522.04 152.37 513.08 154.3 504.12 155.51 495.16 155.88 486.2 155.38 477.24 154.06 468.28 152.04 459.32 149.52 450.36 146.75 441.4 144.01 432.44 141.56 423.48 139.64 414.52 138.44 405.56 138.09 396.6 138.61 387.64 139.95 378.68 141.98 369.72 144.51 360.76 147.27 351.8 150.01 342.84 152.46 333.88 154.36 324.92 155.54 315.96 155.88 307 155.34 298.04 153.99 289.08 151.94 280.12 149.41 271.16 146.64 262.2 153.71 243.11 168.4 236.57 183.13 232.45 198.71 227.85 207.07 225.15 215.76 222.17 224.79 218.89 234.15 215.28 243.8 211.33 253.73 207.04 263.88 202.4 274.21 197.42 284.65 192.13 295.14 186.53 305.61 180.67 315.99 174.56 326.21 168.24 336.19 161.76 345.86 155.16 355.17 148.48 364.06 141.76 372.48 135.05 380.41 128.4 387.81 121.83 406.54 103.22 412.28 97.21" stroke-dasharray="2 10" transform="rotate(12.12, 400, 400)" opacity="0.89"></path><path d="M419.12 109.55Q437.68 115.86 454.34 123.07 468.81 131.33 481.01 140.72 491.06 151.25 499.34 162.82 506.38 175.27 512.9 188.34 519.68 201.74 527.54 215.12 537.22 228.14 549.35 240.45 564.33 251.77 582.32 261.87 603.2 270.59 626.56 277.9 647.39 295.95 666.32 314 676.69 332.05 674.86 350.1 661.45 368.15 641.21 386.2 621.24 404.25 608.57 422.3 607.66 440.34 618.84 458.39 638.16 476.44 658.83 494.49 673.58 512.54 677.21 530.59 668.46 548.63 650.4 566.68 624.71 578.4 599.7 587.99 576.23 595.32 554.97 600.46 536.37 603.63 520.62 605.2 507.62 605.66 497.05 605.59 481.08 607.12 466.44 612.63 458.07 618.9 448.13 627.64 436.27 638.9 422.3 652.55 404.54 651.15 385.22 651.02 364.83 651.52 343.94 651.97 323.11 651.71 302.88 650.14 283.67 646.76 265.78 641.24 249.35 633.36 234.37 623.13 220.68 610.7 208.01 596.37 196.01 580.6 184.29 563.91 172.47 546.9 160.23 530.18 165.06 512.93 167.4 495.67 166.43 478.41 162.48 461.15 156.96 443.89 151.79 426.64 148.81 409.38 149.05 392.12 152.44 374.86 157.77 357.6 163.19 340.35 166.77 323.09 167.26 305.83 164.49 288.57 159.43 271.31 153.86 254.05 166.08 250.57 178.58 246.98 191.71 242.91 205.79 238.06 221.05 232.15 237.62 225.03 255.49 216.62 274.53 206.94 294.42 196.11 314.77 184.32 335.09 171.83 354.83 158.95 373.48 145.99 390.6 133.25 405.86 121.03 419.12 109.55 419.12 109.55 419.12 109.55" stroke-dasharray="5 4" transform="rotate(16.16, 400, 400)" opacity="0.85"></path><path d="M422.34 121.89Q437.37 127.83 450.45 134.6 461.56 142.36 470.87 151.17 478.73 161.06 485.63 171.95 492.17 183.71 499.02 196.13 506.86 208.96 516.32 221.9 527.92 234.64 542.01 246.88 558.74 258.33 578.06 268.76 599.65 277.97 623.01 285.89 642.78 303.16 658.76 320.43 665.81 337.71 661.67 354.98 647.67 372.25 628.31 389.53 609.81 406.8 598.13 424.07 597 441.34 606.81 458.62 624.39 475.89 644.09 493.16 659.58 510.43 665.89 527.71 660.98 544.98 646.43 562.25 622.35 572 598.22 579.75 574.86 585.5 552.95 589.37 533.04 591.64 515.5 592.68 500.45 592.94 487.83 592.97 469.19 595.17 453.92 601.35 446.71 607.72 438.78 616.33 429.64 627.2 418.92 640.21 399.75 638.75 379.75 638.46 359.44 638.79 339.34 639.15 319.91 638.97 301.53 637.73 284.45 634.98 268.79 630.37 254.54 623.7 241.55 614.9 229.58 604.04 218.32 591.32 207.41 577.08 196.5 561.72 185.26 545.74 173.44 529.65 177.64 513.05 179.06 496.46 177.24 479.87 172.77 463.28 167.08 446.68 162 430.09 159.17 413.5 159.49 396.9 162.87 380.31 168.21 363.72 173.8 347.12 177.84 330.53 179.04 313.93 177 297.34 172.39 280.75 166.68 264.15 178.04 260.92 189.47 257.35 201.28 253.14 213.79 248.05 227.28 241.88 241.95 234.53 257.91 225.98 275.14 216.26 293.49 205.53 312.71 193.97 332.43 181.83 352.18 169.37 371.51 156.89 389.91 144.66 406.97 132.92 422.34 121.89 422.34 121.89 422.34 121.89" stroke-dasharray="4 5" transform="rotate(20.200000000000003, 400, 400)" opacity="0.81"></path><path d="M421.35 134.23Q433 139.8 442.99 146.15 451.52 153.41 458.93 161.65 465.64 170.9 472.19 181.1 479.14 192.15 487.05 203.89 496.43 216.1 507.71 228.53 521.17 240.91 536.94 252.97 554.99 264.43 575.07 275.07 596.79 284.69 619.59 293.15 637.52 309.62 650.32 326.1 654.26 342.57 648.18 359.04 633.86 375.51 615.49 391.98 598.43 408.45 587.68 424.92 586.38 441.39 594.9 457.86 610.76 474.33 629.31 490.8 645.15 507.27 653.63 523.74 652.28 540.21 641.49 556.68 619.42 564.57 596.73 570.66 574.12 575.03 552.26 577.85 531.7 579.41 512.91 580.08 496.18 580.28 481.63 580.48 469.22 581.13 458.73 582.71 449.82 585.6 442.05 590.15 434.9 596.59 427.83 605.03 420.34 615.5 411.98 627.87 392.42 626.36 372.79 625.92 353.53 626.08 335.05 626.34 317.66 626.22 301.55 625.25 286.82 623.02 273.43 619.23 261.25 613.65 250.06 606.18 239.57 596.81 229.45 585.68 219.38 573.01 209.05 559.1 198.21 544.34 186.67 529.16 190.02 513.24 190.44 497.32 187.81 481.4 182.88 465.48 177.11 449.56 172.18 433.64 169.53 417.72 169.94 401.8 173.28 385.88 178.58 369.96 184.3 354.04 188.75 338.12 190.64 322.2 189.42 306.28 185.43 290.36 179.86 274.44 190.52 271.27 201.04 267.59 211.7 263.16 222.8 257.78 234.63 251.35 247.43 243.79 261.39 235.12 276.59 225.42 293.03 214.82 310.58 203.53 329.01 191.75 348.01 179.75 367.18 167.76 386.08 156.04 404.27 144.81 421.35 134.23 421.35 134.23 421.35 134.23" stroke-dasharray="9 2" transform="rotate(24.24, 400, 400)" opacity="0.77"></path><path d="M416.32 146.57Q425.23 151.78 433 157.72 439.97 164.48 446.52 172.16 453.11 180.77 460.19 190.28 468.24 200.61 477.65 211.64 488.76 223.18 501.8 235.03 516.84 246.96 533.86 258.72 552.66 270.09 572.92 280.82 594.19 290.72 615.94 299.65 631.43 315.3 640.98 330.94 642.08 346.59 634.42 362.23 620.04 377.88 602.74 393.52 587.09 409.17 577.24 424.81 575.78 440.46 583.11 456.1 597.28 471.74 614.55 487.39 630.35 503.03 640.5 518.68 642.32 534.32 635.33 549.97 615.55 556.16 594.73 560.79 573.46 563.99 552.29 565.98 531.79 567.03 512.41 567.49 494.55 567.73 478.45 568.15 464.24 569.14 451.9 571.09 441.29 574.3 432.16 579.04 424.16 585.5 416.89 593.75 409.9 603.8 402.77 615.53 383.97 613.99 365.72 613.41 348.36 613.41 332.11 613.57 317.14 613.47 303.49 612.7 291.11 610.93 279.85 607.85 269.51 603.24 259.82 596.98 250.48 589.02 241.21 579.42 231.72 568.31 221.76 555.93 211.15 542.54 199.78 528.5 202.12 513.27 201.51 498.03 198.12 482.8 192.84 467.57 187.07 452.34 182.34 437.1 179.89 421.87 180.38 406.64 183.67 391.4 188.9 376.17 194.67 360.93 199.48 345.7 202.03 330.47 201.67 315.23 198.48 300 193.3 284.77 203.42 281.5 213.21 277.6 222.92 272.88 232.82 267.2 243.18 260.5 254.25 252.76 266.26 244.03 279.37 234.38 293.67 223.97 309.17 212.98 325.77 201.61 343.29 190.08 361.45 178.61 379.94 167.41 398.36 156.68 416.32 146.57 416.32 146.57 416.32 146.57" stroke-dasharray="6 11" transform="rotate(28.28, 400, 400)" opacity="0.73"></path><path d="M408.22 158.91Q415.32 163.77 421.93 169.29 428.38 175.58 435.05 182.7 442.34 190.67 450.59 199.49 460.12 209.1 471.18 219.38 483.93 230.22 498.43 241.43 514.61 252.82 532.32 264.2 551.28 275.33 571.13 286.02 591.43 296.09 611.7 305.36 624.34 320.15 630.72 334.95 629.31 349.75 620.45 364.55 606.25 379.35 590.08 394.14 575.8 408.94 566.8 423.74 565.22 438.54 571.43 453.34 583.97 468.14 599.85 482.94 615.28 497.74 626.6 512.53 631.12 527.33 627.75 542.13 610.41 546.83 591.78 550.23 572.3 552.5 552.42 553.86 532.63 554.57 513.38 554.95 495.05 555.32 477.98 556.01 462.39 557.35 448.4 559.64 436.05 563.13 425.25 568.03 415.83 574.46 407.53 582.49 400.05 592.1 393.04 603.19 376.01 601.63 359.95 600.93 345.05 600.79 331.38 600.84 318.95 600.73 307.68 600.13 297.44 598.72 288.01 596.25 279.15 592.49 270.6 587.32 262.09 580.66 253.36 572.5 244.19 562.93 234.42 552.09 223.92 540.18 212.63 527.45 213.83 512.92 212.22 498.39 208.17 483.86 202.65 469.33 196.97 454.8 192.48 440.27 190.26 425.74 190.82 411.21 194.04 396.68 199.15 382.15 204.94 367.62 210.02 353.09 213.19 338.56 213.69 324.03 211.41 309.5 206.89 294.97 216.6 291.49 225.86 287.28 234.85 282.23 243.78 276.26 252.91 269.32 262.47 261.45 272.71 252.69 283.81 243.16 295.95 232.98 309.21 222.33 323.61 211.39 339.1 200.36 355.55 189.42 372.74 178.76 390.4 168.55 408.22 158.91 408.22 158.91 408.22 158.91" stroke-dasharray="8 6" transform="rotate(32.32, 400, 400)" opacity="0.70"></path><path d="M398.55 171.26Q404.92 175.78 411.37 180.9 418.22 186.71 425.77 193.28 434.29 200.63 444.01 208.76 455.11 217.63 467.68 227.17 481.75 237.26 497.23 247.78 513.99 258.56 531.79 269.44 550.31 280.22 569.22 290.74 588.11 300.81 606.57 310.27 616.16 324.21 619.55 338.15 616.01 352.08 606.3 366.02 592.49 379.95 577.51 393.89 564.54 407.83 556.35 421.76 554.68 435.7 559.88 449.64 570.85 463.57 585.25 477.51 600.02 491.45 612.02 505.38 618.7 519.32 618.64 533.26 603.77 536.69 587.51 539.1 570.14 540.66 552.03 541.58 533.54 542.11 515.08 542.52 497 543.08 479.63 544.08 463.27 545.76 448.11 548.36 434.3 552.09 421.89 557.09 410.85 563.45 401.08 571.22 392.41 580.38 384.62 590.84 370.08 589.27 356.68 588.47 344.46 588.19 333.38 588.13 323.33 588 314.17 587.51 297.8 583.92 282.1 577.22 274.07 571.73 265.6 564.92 256.56 556.82 246.82 547.5 236.33 537.11 225.08 525.81 225.11 512 222.56 498.19 217.97 484.38 212.32 470.58 206.81 456.77 202.62 442.96 200.63 429.16 201.27 415.35 204.4 401.54 209.36 387.74 215.09 373.93 220.37 360.12 224.08 346.32 225.43 332.51 224.14 318.71 220.47 304.9 229.92 301.1 238.81 296.55 247.29 291.17 255.52 284.92 263.7 277.8 272.05 269.84 280.78 261.12 290.1 251.75 300.21 241.86 311.25 231.6 323.32 221.13 336.48 210.61 350.7 200.22 365.89 190.11 381.91 180.42 398.55 171.26 398.55 171.26 398.55 171.26" stroke-dasharray="0 10" transform="rotate(36.36, 400, 400)" opacity="0.66"></path><path d="M389.17 183.6Q395.75 187.78 402.87 192.51 410.75 197.86 419.59 203.89 429.55 210.62 440.73 218.08 453.17 226.22 466.87 234.99 481.74 244.32 497.64 254.1 514.36 264.2 531.65 274.49 549.2 284.82 566.72 295.02 583.86 304.94 600.3 314.45 606.81 327.51 607.5 340.57 602.24 353.63 592.03 366.7 578.79 379.76 565.02 392.82 553.33 405.89 545.91 418.95 544.18 432.01 548.45 445.08 557.92 458.14 570.8 471.2 584.67 484.27 596.9 497.33 600.33 518.13 581.63 527.52 566.56 528.58 550.53 529.25 533.81 529.73 516.71 530.27 499.54 531.08 482.6 532.38 466.17 534.38 450.5 537.27 435.77 541.18 422.12 546.23 409.64 552.49 398.35 559.98 388.2 568.68 379.1 578.5 367.37 576.93 356.71 576.05 338.64 575.48 322.71 574.9 308.43 572.06 293.91 566.73 286.05 562.28 277.63 556.69 268.55 549.96 258.75 542.11 248.23 533.22 237.02 523.41 235.89 510.34 232.51 497.28 227.52 484.22 221.87 471.15 216.61 458.09 212.75 445.03 211 431.97 211.71 418.9 214.74 405.84 219.51 392.78 225.12 379.72 230.53 366.66 234.69 353.59 236.84 340.53 236.56 327.47 233.9 314.41 243.18 310.25 251.86 305.34 260.03 299.64 267.8 293.15 275.33 285.9 282.77 277.92 290.34 269.31 298.2 260.17 306.57 250.61 315.6 240.76 325.45 230.79 336.23 220.81 348 210.98 360.78 201.43 381.85 187.93 389.17 183.6" stroke-dasharray="2 3" transform="rotate(40.400000000000006, 400, 400)" opacity="0.62"></path><path d="M381.83 195.94Q389.31 199.79 397.58 204.14 406.77 209.03 416.97 214.54 428.24 220.68 440.57 227.46 453.92 234.88 468.2 242.89 483.28 251.43 498.97 260.44 515.05 269.81 531.29 279.43 547.44 289.18 563.22 298.94 578.39 308.57 592.71 317.94 596.27 330.12 594.63 342.3 588.07 354.49 577.67 366.67 565.16 378.85 552.63 391.04 542.15 403.22 535.47 415.4 533.7 427.59 537.13 439.77 545.19 451.95 556.55 464.14 569.31 476.32 581.36 488.51 588.09 507.6 573.97 515.63 561.24 516.39 547.46 516.95 532.82 517.5 517.53 518.23 501.83 519.31 485.97 520.92 470.18 523.22 454.7 526.35 439.74 530.4 425.47 535.46 412.05 541.57 399.55 548.75 388.05 556.97 377.53 566.16 360.63 563.87 345.8 562.87 332.79 562.11 319.82 560.37 305.3 555.41 289.13 547.82 279.92 542.34 270.03 535.86 259.48 528.43 248.34 520.11 246.15 507.81 242.09 495.51 236.86 483.21 231.32 470.92 226.38 458.62 222.88 446.32 221.38 434.03 222.15 421.73 225.06 409.43 229.61 397.14 235.06 384.84 240.49 372.55 245.01 360.25 247.86 347.95 248.58 335.66 247.03 323.36 256.21 318.82 264.79 313.57 272.81 307.61 280.34 300.95 287.48 293.63 294.35 285.71 301.1 277.27 307.9 268.41 314.91 259.23 322.3 249.85 330.22 240.39 338.82 230.98 348.22 221.73 358.49 212.74 375.76 200.03 381.83 195.94" stroke-dasharray="3 10" transform="rotate(44.44, 400, 400)" opacity="0.58"></path><path d="M377.91 208.28Q386.6 211.81 396.14 215.78 406.55 220.24 417.86 225.23 430.03 230.79 442.99 236.92 456.66 243.62 470.9 250.87 485.56 258.63 500.45 266.84 515.38 275.43 530.15 284.31 544.55 293.41 558.39 302.6 571.48 311.78 583.67 320.85 584.57 332.15 581.04 343.45 573.58 354.76 563.28 366.06 551.64 377.36 540.33 388.66 531.01 399.96 525.02 411.27 523.24 422.57 525.92 433.87 532.67 445.17 542.52 456.48 554.03 467.78 565.54 479.08 564.3 500.39 542.5 504.78 530.08 505.48 516.87 506.45 503.04 507.82 488.77 509.73 474.24 512.29 459.65 515.6 445.19 519.74 431.03 524.76 417.33 530.69 404.23 537.53 391.83 545.26 380.2 553.82 367.22 551.48 355.28 550.31 343.56 549.56 331.1 548.15 316.35 544.3 299.81 538.35 290.45 533.98 280.48 528.76 269.97 522.69 258.97 515.8 255.86 504.29 251.32 492.78 246 481.27 240.68 469.76 236.13 458.25 233.01 446.74 231.77 435.23 232.6 423.72 235.36 412.21 239.67 400.7 244.89 389.19 250.28 377.68 255.04 366.17 258.48 354.66 260.11 343.15 259.7 331.64 268.82 326.74 277.36 321.2 285.35 315.04 292.8 308.29 299.78 300.99 306.37 293.2 312.66 285 318.79 276.48 324.87 267.73 331.06 258.85 337.5 249.95 344.33 241.11 351.68 232.44 359.67 224.03 373.15 212.11 377.91 208.28" stroke-dasharray="7 3" transform="rotate(48.48, 400, 400)" opacity="0.54"></path><path d="M378.17 220.62Q387.98 223.84 398.52 227.45 409.77 231.48 421.67 235.98 434.16 240.96 447.14 246.46 460.48 252.46 474.06 258.96 487.73 265.93 501.33 273.33 514.71 281.11 527.7 289.21 540.17 297.56 551.97 306.08 563 314.69 573.14 323.3 571.78 333.73 566.8 344.15 558.85 354.57 548.9 365 538.22 375.42 528.13 385.85 519.91 396.27 514.58 406.7 512.81 417.12 514.82 427.54 520.37 437.97 528.75 448.39 538.91 458.82 549.59 469.24 552.41 488.71 535.43 492.84 525.22 493.75 514.2 494.98 502.47 496.64 490.14 498.81 477.33 501.58 464.21 505.03 450.9 509.2 437.56 514.14 424.33 519.85 411.35 526.33 398.74 533.55 386.61 541.48 368.23 538.29 354.55 537.09 341.42 535.67 326.7 533.17 318.35 531.05 309.43 528.32 299.96 524.92 290.01 520.81 279.62 515.99 268.88 510.44 265.06 499.73 260.22 489.03 254.98 478.32 249.99 467.62 245.88 456.91 243.16 446.21 242.17 435.5 243.04 424.8 245.66 414.09 249.69 403.39 254.64 392.68 259.88 381.98 264.76 371.27 268.67 360.57 271.11 349.87 271.78 339.16 280.82 333.96 289.35 328.21 297.36 321.93 304.85 315.17 311.84 307.97 318.36 300.4 324.49 292.51 330.31 284.39 335.89 276.12 341.35 267.78 346.81 259.45 352.38 251.21 358.19 243.14 364.35 235.31 374.57 224.2 378.17 220.62" stroke-dasharray="4 0" transform="rotate(52.52, 400, 400)" opacity="0.51"></path><path d="M382.54 232.95Q393.05 235.88 404.09 239.13 415.57 242.75 427.44 246.77 439.6 251.21 451.95 256.09 464.37 261.42 476.76 267.18 488.99 273.37 500.95 279.96 512.51 286.91 523.57 294.19 534.04 301.74 543.84 309.51 552.9 317.43 561.17 325.44 558 334.99 552.05 344.55 543.95 354.1 534.58 363.66 524.93 373.21 516.03 382.76 508.85 392.32 504.14 401.87 502.4 411.42 503.84 420.98 508.28 430.53 515.26 440.09 524.03 449.64 533.65 459.19 528.62 479.72 509.21 483.85 499.62 485.77 489.38 488.16 478.58 491.1 467.3 494.63 455.64 498.78 443.72 503.58 431.64 509.03 419.51 515.12 407.44 521.84 395.54 529.14 378.36 525.86 364.53 524.56 350.74 523.37 335.4 521.44 326.85 519.85 317.82 517.78 308.37 515.2 298.55 512.06 288.42 508.33 278.06 503.99 273.76 494.11 268.85 484.22 263.84 474.34 259.28 464.46 255.64 454.57 253.33 444.69 252.58 434.81 253.48 424.93 255.94 415.04 259.68 405.16 264.31 395.28 269.33 385.39 274.21 375.51 278.42 365.63 281.52 355.74 283.17 345.86 292.08 340.44 300.57 334.58 308.6 328.29 316.16 321.62 323.24 314.62 329.86 307.33 336.04 299.83 341.82 292.17 347.26 284.42 352.42 276.64 357.39 268.91 362.25 261.28 377.33 239.83 382.54 232.95" stroke-dasharray="10 4" transform="rotate(56.56, 400, 400)" opacity="0.47"></path><path d="M390.22 245.3Q411.67 250.84 433.91 257.62 456.3 265.83 478.14 275.55 498.74 286.77 517.5 299.33 533.95 312.99 547.84 327.43 536.89 344.81 520.35 362.2 504.04 379.59 493.69 396.97 492.95 414.35 502.08 431.74 517.86 449.12 534.74 466.51 525.99 467.92 515.09 469.94 501.79 473.09 486.04 477.8 468.05 484.39 448.23 493.09 427.11 503.92 405.32 516.79 396.02 514.34 385.3 512.95 372.86 512.07 358.58 511.11 342.52 509.53 324.91 506.81 306.11 502.55 286.57 496.47 277.25 478.37 268.55 460.28 263.52 442.18 263.93 424.09 269.63 405.99 278.63 387.9 287.75 369.8 293.79 351.71 310.85 340.32 326.46 327.65 340.41 314.03 352.68 299.82 363.41 285.45 372.91 271.33 385.94 251.57 390.22 245.3" stroke-dasharray="5 5" transform="rotate(60.599999999999994, 400, 400)" opacity="0.43"></path><path d="M399.73 257.64Q419.76 262.56 439.74 268.52 459.14 275.67 477.49 284.08 494.34 293.78 509.38 304.67 522.39 316.63 533.32 329.42 521.47 345.11 506.26 360.8 492.15 376.49 483.25 392.18 482.17 407.87 489.22 423.56 502.34 439.25 517.7 454.94 510.68 456.66 502.23 459.14 492.04 462.73 479.94 467.72 465.9 474.33 450.05 482.67 432.65 492.74 414.09 504.46 403.95 502.09 392.26 500.62 378.97 499.65 364.14 498.75 347.96 497.49 330.72 495.49 312.77 492.4 294.49 487.96 285.52 471.55 277.86 455.14 273.74 438.73 274.37 422.33 279.57 405.92 287.81 389.51 296.68 373.1 303.6 356.69 320.11 345.45 335.52 333.29 349.61 320.49 362.25 307.35 373.42 294.2 383.22 281.35 395.81 263.36 399.73 257.64" stroke-dasharray="5 6" transform="rotate(64.64, 400, 400)" opacity="0.39"></path><path d="M409.3 269.98Q426.8 274.31 443.69 279.48 459.63 285.62 474.34 292.79 487.6 301.04 499.27 310.31 509.33 320.54 517.84 331.6 505.92 345.62 492.35 359.64 480.36 373.67 472.81 387.69 471.48 401.72 476.7 415.75 490.96 437.84 488.06 448.82 480.31 452.77 471.21 457.93 460.64 464.42 448.56 472.3 435.03 481.56 420.2 492.12 408.97 489.86 396.4 488.35 382.55 487.31 367.61 486.41 351.8 485.37 335.39 483.88 318.67 481.68 301.94 478.55 293.72 463.83 287.22 449.12 284 434.41 284.82 419.7 289.48 404.99 296.88 390.28 305.26 375.57 312.62 360.86 328.28 350.02 343.22 338.58 357.21 326.76 370.08 314.79 381.71 302.91 392.07 291.35 405.26 275.15 409.3 269.98" stroke-dasharray="5 6" transform="rotate(68.68, 400, 400)" opacity="0.35"></path><path d="M417.11 282.32Q431.39 286.07 444.83 290.5 457.24 295.68 468.5 301.7 478.56 308.57 487.38 316.29 495.04 324.83 501.65 334.12 490.37 346.51 478.64 358.9 468.68 371.29 462.36 383.68 460.88 396.07 464.52 408.46 475.54 428.31 473.07 439.06 467.06 443.24 460.26 448.42 452.48 454.67 443.62 461.99 433.62 470.38 422.49 479.78 410.46 477.66 397.46 476.15 383.63 475.05 369.16 474.15 354.25 473.23 339.13 472.09 324.01 470.53 309.1 468.37 301.93 455.36 296.67 442.35 294.29 429.33 295.26 416.32 299.38 403.31 305.88 390.3 313.54 377.28 320.9 364.27 335.42 354.1 349.55 343.58 363.07 332.87 375.83 322.14 387.69 311.58 398.54 301.33 412.73 286.93 417.11 282.32" stroke-dasharray="6 9" transform="rotate(72.72, 400, 400)" opacity="0.32"></path><path d="M421.69 294.66Q432.57 297.86 442.63 301.58 451.8 305.88 460.08 310.81 467.48 316.4 474.04 322.67 479.85 329.6 485.03 337.16 474.95 347.94 465.17 358.73 457.1 369.51 451.92 380.3 450.38 391.08 452.7 401.87 460.48 419.49 457.78 429.85 447.45 439.59 435.59 451.74 428.47 459.21 420.54 467.44 408.37 465.49 395.65 464.02 382.52 462.89 369.15 461.97 355.68 461.11 342.26 460.19 329.04 459.06 316.14 457.59 310.26 446.27 306.24 434.95 304.64 423.63 305.7 412.31 309.27 400.99 314.83 389.67 321.58 378.36 328.52 367.04 341.63 357.77 354.58 348.34 367.23 338.86 379.44 329.45 391.09 320.23 402.06 311.3 416.99 298.7 421.69 294.66" stroke-dasharray="5 10" transform="rotate(76.76, 400, 400)" opacity="0.28"></path><path d="M422.17 307Q436.73 312.94 449.44 320.15 459.46 329.74 468.27 340.84 459.77 350.05 451.95 359.26 445.62 368.47 441.47 377.67 439.95 386.88 441.21 396.09 442.29 418.44 434.35 430.21 425.08 441.81 414.71 455.1 403.25 453.35 391.6 451.95 379.86 450.83 368.15 449.9 356.54 449.08 345.14 448.27 334.03 447.41 323.27 446.39 318.8 436.75 315.95 427.11 315.04 417.47 316.14 407.83 319.16 398.2 323.76 388.56 329.46 378.92 335.64 369.28 347.06 361.12 358.5 352.93 369.85 344.77 381.03 336.73 391.93 328.87 402.48 321.26 417.38 310.48 422.17 307" stroke-dasharray="5 11" transform="rotate(80.80000000000001, 400, 400)" opacity="0.24"></path><path d="M418.47 319.35Q428.53 323.94 437.18 329.7 444.75 336.79 451.66 345.3 439.01 360.6 431.03 375.91 430.06 391.21 436.38 406.51 428.4 413.21 421.04 421.48 413.77 431.36 406.1 442.75 386.27 439.95 366.83 437.97 348.2 436.44 330.7 434.95 325.84 419 326.59 403.05 332.71 387.1 342.42 371.15 361.61 357.41 380.98 344 400.09 331.22 418.47 319.35 418.47 319.35 418.47 319.35" stroke-dasharray="3 2" transform="rotate(84.84, 400, 400)" opacity="0.20"></path><path d="M411.28 331.69Q423.89 339.91 435.46 350.6 426.36 362.83 420.59 375.06 419.24 387.29 422.56 399.51 415.25 405.75 408.6 412.99 402.38 421.23 396.34 430.41 380.82 428.03 365.93 426.2 351.83 424.75 338.63 423.48 335.94 410.82 337.03 398.15 341.7 385.48 349.07 372.81 364.27 361.88 379.85 351.28 395.6 341.17 411.28 331.69 411.28 331.69 411.28 331.69" stroke-dasharray="8 4" transform="rotate(88.88, 400, 400)" opacity="0.16"></path><path d="M401.96 344.03Q412.46 357.88 410.15 375.17 406.15 391.6 397.75 404.72 384.4 413.66 366.17 414.61 351.35 408.03 347.48 393.31 350.78 383.88 355.81 374.45 366.89 366.4 378.33 358.6 396 347.58 401.96 344.03" stroke-dasharray="5 3" transform="rotate(92.92, 400, 400)" opacity="0.13"></path><path d="M392.27 356.37Q399.12 368.02 398.42 388.5 389.02 396.66 380.6 405.73 363.03 395.98 362.87 376.25 377.17 365.99 392.27 356.37 392.27 356.37 392.27 356.37" stroke-dasharray="6 8" transform="rotate(96.96, 400, 400)" opacity="0.09"></path></g></svg>